<svg width="45" height="14" viewBox="0 0 45 14" fill="none" xmlns="http://www.w3.org/2000/svg">
<path d="M2.7793 10.8818H8.37793V13H0.142578V0.203125H2.7793V10.8818ZM19.8477 6.8916C19.8477 8.15137 19.625 9.25586 19.1797 10.2051C18.7344 11.1543 18.0957 11.8867 17.2637 12.4023C16.4375 12.918 15.4883 13.1758 14.416 13.1758C13.3555 13.1758 12.4092 12.9209 11.5771 12.4111C10.7451 11.9014 10.1006 11.1748 9.64355 10.2314C9.18652 9.28223 8.95508 8.19238 8.94922 6.96191V6.3291C8.94922 5.06934 9.1748 3.96191 9.62598 3.00684C10.083 2.0459 10.7246 1.31055 11.5508 0.800781C12.3828 0.285156 13.332 0.0273438 14.3984 0.0273438C15.4648 0.0273438 16.4111 0.285156 17.2373 0.800781C18.0693 1.31055 18.7109 2.0459 19.1621 3.00684C19.6191 3.96191 19.8477 5.06641 19.8477 6.32031V6.8916ZM17.1758 6.31152C17.1758 4.96973 16.9355 3.9502 16.4551 3.25293C15.9746 2.55566 15.2891 2.20703 14.3984 2.20703C13.5137 2.20703 12.8311 2.55273 12.3506 3.24414C11.8701 3.92969 11.627 4.9375 11.6211 6.26758V6.8916C11.6211 8.19824 11.8613 9.21191 12.3418 9.93262C12.8223 10.6533 13.5137 11.0137 14.416 11.0137C15.3008 11.0137 15.9805 10.668 16.4551 9.97656C16.9297 9.2793 17.1699 8.26562 17.1758 6.93555V6.31152ZM31.8887 11.3828C31.4141 11.9512 30.7432 12.3936 29.876 12.71C29.0088 13.0205 28.0479 13.1758 26.9932 13.1758C25.8857 13.1758 24.9131 12.9355 24.0752 12.4551C23.2432 11.9688 22.5986 11.2656 22.1416 10.3457C21.6904 9.42578 21.459 8.34473 21.4473 7.10254V6.23242C21.4473 4.95508 21.6611 3.85059 22.0889 2.91895C22.5225 1.98145 23.1436 1.2666 23.9521 0.774414C24.7666 0.276367 25.7188 0.0273438 26.8086 0.0273438C28.3262 0.0273438 29.5127 0.390625 30.3682 1.11719C31.2236 1.83789 31.7305 2.88965 31.8887 4.27246H29.3223C29.2051 3.54004 28.9443 3.00391 28.54 2.66406C28.1416 2.32422 27.5908 2.1543 26.8877 2.1543C25.9912 2.1543 25.3086 2.49121 24.8398 3.16504C24.3711 3.83887 24.1338 4.84082 24.1279 6.1709V6.98828C24.1279 8.33008 24.3828 9.34375 24.8926 10.0293C25.4023 10.7148 26.1494 11.0576 27.1338 11.0576C28.124 11.0576 28.8301 10.8467 29.252 10.4248V8.21875H26.8525V6.27637H31.8887V11.3828ZM44.5449 6.8916C44.5449 8.15137 44.3223 9.25586 43.877 10.2051C43.4316 11.1543 42.793 11.8867 41.9609 12.4023C41.1348 12.918 40.1855 13.1758 39.1133 13.1758C38.0527 13.1758 37.1064 12.9209 36.2744 12.4111C35.4424 11.9014 34.7979 11.1748 34.3408 10.2314C33.8838 9.28223 33.6523 8.19238 33.6465 6.96191V6.3291C33.6465 5.06934 33.8721 3.96191 34.3232 3.00684C34.7803 2.0459 35.4219 1.31055 36.248 0.800781C37.0801 0.285156 38.0293 0.0273438 39.0957 0.0273438C40.1621 0.0273438 41.1084 0.285156 41.9346 0.800781C42.7666 1.31055 43.4082 2.0459 43.8594 3.00684C44.3164 3.96191 44.5449 5.06641 44.5449 6.32031V6.8916ZM41.873 6.31152C41.873 4.96973 41.6328 3.9502 41.1523 3.25293C40.6719 2.55566 39.9863 2.20703 39.0957 2.20703C38.2109 2.20703 37.5283 2.55273 37.0479 3.24414C36.5674 3.92969 36.3242 4.9375 36.3184 6.26758V6.8916C36.3184 8.19824 36.5586 9.21191 37.0391 9.93262C37.5195 10.6533 38.2109 11.0137 39.1133 11.0137C39.998 11.0137 40.6777 10.668 41.1523 9.97656C41.627 9.2793 41.8672 8.26562 41.873 6.93555V6.31152Z" fill="black"/>
</svg>
