<svg width="55" height="32" viewBox="0 0 55 32" fill="none" xmlns="http://www.w3.org/2000/svg">
<path d="M7.29395 7.75879H4.41602V5.83105C4.41602 5.27051 4.38411 4.92188 4.32031 4.78516C4.26107 4.64388 4.12663 4.57324 3.91699 4.57324C3.68001 4.57324 3.52962 4.65755 3.46582 4.82617C3.40202 4.99479 3.37012 5.35938 3.37012 5.91992V11.0605C3.37012 11.5983 3.40202 11.9492 3.46582 12.1133C3.52962 12.2773 3.67318 12.3594 3.89648 12.3594C4.11068 12.3594 4.24967 12.2773 4.31348 12.1133C4.38184 11.9492 4.41602 11.5641 4.41602 10.958V9.57031H7.29395V10.001C7.29395 11.1449 7.21191 11.9561 7.04785 12.4346C6.88835 12.9131 6.5306 13.3324 5.97461 13.6924C5.42318 14.0524 4.74186 14.2324 3.93066 14.2324C3.08757 14.2324 2.39258 14.0798 1.8457 13.7744C1.29883 13.4691 0.936523 13.0475 0.758789 12.5098C0.581055 11.9674 0.492188 11.154 0.492188 10.0693V6.83594C0.492188 6.03841 0.519531 5.44141 0.574219 5.04492C0.628906 4.64388 0.79069 4.25879 1.05957 3.88965C1.33301 3.52051 1.70898 3.23112 2.1875 3.02148C2.67057 2.80729 3.22428 2.7002 3.84863 2.7002C4.69629 2.7002 5.39583 2.86426 5.94727 3.19238C6.4987 3.52051 6.861 3.93066 7.03418 4.42285C7.20736 4.91048 7.29395 5.67155 7.29395 6.70605V7.75879ZM14.823 2.93262V5.14746H13.1141V14H10.2361V5.14746H8.53398V2.93262H14.823ZM16.1793 2.93262H19.0777C19.8616 2.93262 20.4632 2.99414 20.8824 3.11719C21.3062 3.24023 21.623 3.41797 21.8326 3.65039C22.0468 3.88281 22.1904 4.16536 22.2633 4.49805C22.3408 4.82617 22.3795 5.33659 22.3795 6.0293V6.99316C22.3795 7.69954 22.3066 8.21452 22.1607 8.53809C22.0149 8.86165 21.746 9.11003 21.3541 9.2832C20.9667 9.45638 20.4586 9.54297 19.8297 9.54297H19.0572V14H16.1793V2.93262ZM19.0572 4.82617V7.64258C19.1393 7.64714 19.2099 7.64941 19.2691 7.64941C19.5335 7.64941 19.7158 7.58561 19.816 7.45801C19.9208 7.32585 19.9732 7.05469 19.9732 6.64453V5.73535C19.9732 5.3571 19.914 5.111 19.7955 4.99707C19.677 4.88314 19.4309 4.82617 19.0572 4.82617ZM30.4828 9.41309C30.4828 10.5251 30.4555 11.3135 30.4008 11.7783C30.3507 12.2386 30.1866 12.6602 29.9086 13.043C29.6352 13.4258 29.2637 13.7197 28.7943 13.9248C28.3249 14.1299 27.7781 14.2324 27.1537 14.2324C26.5613 14.2324 26.0281 14.1367 25.5541 13.9453C25.0847 13.7493 24.7064 13.4577 24.4193 13.0703C24.1322 12.6829 23.9613 12.2614 23.9066 11.8057C23.852 11.3499 23.8246 10.5524 23.8246 9.41309V7.51953C23.8246 6.40755 23.8497 5.62142 23.8998 5.16113C23.9545 4.69629 24.1186 4.27246 24.392 3.88965C24.67 3.50684 25.0437 3.21289 25.5131 3.00781C25.9825 2.80273 26.5294 2.7002 27.1537 2.7002C27.7462 2.7002 28.2771 2.79818 28.7465 2.99414C29.2204 3.18555 29.601 3.47493 29.8881 3.8623C30.1752 4.24967 30.3461 4.67122 30.4008 5.12695C30.4555 5.58268 30.4828 6.38021 30.4828 7.51953V9.41309ZM27.6049 5.77637C27.6049 5.26139 27.5753 4.93327 27.516 4.79199C27.4613 4.64616 27.3451 4.57324 27.1674 4.57324C27.017 4.57324 26.9008 4.63249 26.8188 4.75098C26.7413 4.86491 26.7025 5.20671 26.7025 5.77637V10.9443C26.7025 11.5869 26.7276 11.9834 26.7777 12.1338C26.8324 12.2842 26.9555 12.3594 27.1469 12.3594C27.3428 12.3594 27.4682 12.2728 27.5229 12.0996C27.5775 11.9264 27.6049 11.514 27.6049 10.8623V5.77637ZM38.6887 14H36.2824V8.96191L34.7854 14H32.2629V2.92578H34.6691V7.92285L36.2824 2.92578H38.6887V14ZM36.2346 0.519531H37.3967C37.3693 1.13932 37.187 1.63835 36.8498 2.0166C36.5171 2.39486 36.0523 2.58398 35.4553 2.58398C34.8537 2.58398 34.3866 2.39486 34.0539 2.0166C33.7258 1.63379 33.548 1.13477 33.5207 0.519531H34.6828C34.7375 1.14388 34.995 1.45605 35.4553 1.45605C35.9201 1.45605 36.1799 1.14388 36.2346 0.519531ZM7 31H4.59375V25.9619L3.09668 31H0.574219V19.9258H2.98047V24.9229L4.59375 19.9258H7V31ZM15.4656 19.9326V31H12.5877V26.3516H11.7264V31H8.84844V19.9326H11.7264V23.8906H12.5877V19.9326H15.4656ZM27.6842 25.5791C27.6842 26.3037 27.65 26.8255 27.5816 27.1445C27.4859 27.5866 27.2831 27.9854 26.9732 28.3408C26.4902 28.8923 25.581 29.168 24.2457 29.168H23.7398V31H20.8551V29.168H20.4107C19.0709 29.168 18.1594 28.8923 17.6764 28.3408C17.3665 27.9854 17.1637 27.5866 17.068 27.1445C16.9996 26.8255 16.9654 26.3037 16.9654 25.5791V25.3877C16.9654 24.6631 16.9996 24.1413 17.068 23.8223C17.1637 23.3802 17.3665 22.9814 17.6764 22.626C18.1549 22.0882 19.0663 21.8193 20.4107 21.8193C20.511 21.8193 20.6591 21.8125 20.8551 21.7988V19.9258H23.7398V21.7988C23.9723 21.8125 24.1409 21.8193 24.2457 21.8193C25.5901 21.8193 26.4993 22.0882 26.9732 22.626C27.2831 22.9814 27.4859 23.3802 27.5816 23.8223C27.65 24.1413 27.6842 24.6631 27.6842 25.3877V25.5791ZM24.8062 26.2012V24.7725C24.8062 24.3942 24.7311 24.0911 24.5807 23.8633C24.4348 23.6354 24.2525 23.5215 24.0338 23.5215H23.7398V27.4453H24.0338C24.2525 27.4453 24.4348 27.3314 24.5807 27.1035C24.7311 26.8757 24.8062 26.5749 24.8062 26.2012ZM20.8551 27.4453V23.5215H20.6158C20.4016 23.5215 20.2193 23.6354 20.0689 23.8633C19.9231 24.0911 19.8502 24.3942 19.8502 24.7725V26.2012C19.8502 26.5749 19.9231 26.8757 20.0689 27.1035C20.2193 27.3314 20.4016 27.4453 20.6158 27.4453H20.8551ZM35.7602 26.4131C35.7602 27.5251 35.7328 28.3135 35.6781 28.7783C35.628 29.2386 35.4639 29.6602 35.1859 30.043C34.9125 30.4258 34.5411 30.7197 34.0717 30.9248C33.6023 31.1299 33.0554 31.2324 32.4311 31.2324C31.8386 31.2324 31.3054 31.1367 30.8314 30.9453C30.362 30.7493 29.9838 30.4577 29.6967 30.0703C29.4096 29.6829 29.2387 29.2614 29.184 28.8057C29.1293 28.3499 29.102 27.5524 29.102 26.4131V24.5195C29.102 23.4076 29.127 22.6214 29.1771 22.1611C29.2318 21.6963 29.3959 21.2725 29.6693 20.8896C29.9473 20.5068 30.321 20.2129 30.7904 20.0078C31.2598 19.8027 31.8067 19.7002 32.4311 19.7002C33.0235 19.7002 33.5544 19.7982 34.0238 19.9941C34.4978 20.1855 34.8783 20.4749 35.1654 20.8623C35.4525 21.2497 35.6234 21.6712 35.6781 22.127C35.7328 22.5827 35.7602 23.3802 35.7602 24.5195V26.4131ZM32.8822 22.7764C32.8822 22.2614 32.8526 21.9333 32.7934 21.792C32.7387 21.6462 32.6225 21.5732 32.4447 21.5732C32.2943 21.5732 32.1781 21.6325 32.0961 21.751C32.0186 21.8649 31.9799 22.2067 31.9799 22.7764V27.9443C31.9799 28.5869 32.0049 28.9834 32.0551 29.1338C32.1098 29.2842 32.2328 29.3594 32.4242 29.3594C32.6202 29.3594 32.7455 29.2728 32.8002 29.0996C32.8549 28.9264 32.8822 28.514 32.8822 27.8623V22.7764ZM37.5402 19.9326H40.4387C41.2225 19.9326 41.8241 19.9941 42.2434 20.1172C42.6672 20.2402 42.9839 20.418 43.1936 20.6504C43.4077 20.8828 43.5513 21.1654 43.6242 21.498C43.7017 21.8262 43.7404 22.3366 43.7404 23.0293V23.9932C43.7404 24.6995 43.6675 25.2145 43.5217 25.5381C43.3758 25.8617 43.107 26.11 42.715 26.2832C42.3277 26.4564 41.8195 26.543 41.1906 26.543H40.4182V31H37.5402V19.9326ZM40.4182 21.8262V24.6426C40.5002 24.6471 40.5708 24.6494 40.6301 24.6494C40.8944 24.6494 41.0767 24.5856 41.177 24.458C41.2818 24.3258 41.3342 24.0547 41.3342 23.6445V22.7354C41.3342 22.3571 41.2749 22.111 41.1564 21.9971C41.038 21.8831 40.7919 21.8262 40.4182 21.8262ZM54.1475 19.9326V31H51.6318V23.5283L50.627 31H48.8428L47.7832 23.6992V31H45.2676V19.9326H48.9932C49.1025 20.598 49.2188 21.3818 49.3418 22.2842L49.7383 25.1006L50.3945 19.9326H54.1475Z" fill="#5D85EF"/>
</svg>
